<svg width="256" height="250" viewBox="0 0 256 250" fill="none" xmlns="http://www.w3.org/2000/svg">
<g clip-path="url(#clip0_32_2)">
<rect width="256" height="250" fill="white"/>
<rect width="256" height="256" fill="white"/>
<rect width="256" height="256" rx="40.4211" fill="#EFE65C"/>
<path d="M73 198C71.6739 198 70.4021 197.473 69.4645 196.536C68.5268 195.598 68 194.326 68 193C68 191.674 68.5268 190.402 69.4645 189.464C70.4021 188.527 71.6739 188 73 188H83V178C82.9979 169.51 85.3979 161.192 89.9225 154.008C94.4471 146.824 100.912 141.066 108.57 137.4C111.47 136.01 113 133.63 113 131.5V124.5C113 122.37 111.46 119.99 108.57 118.6C100.912 114.934 94.4471 109.176 89.9225 101.992C85.3979 94.808 82.9979 86.4903 83 78V68H73C71.6739 68 70.4021 67.4732 69.4645 66.5355C68.5268 65.5979 68 64.3261 68 63C68 61.6739 68.5268 60.4021 69.4645 59.4645C70.4021 58.5268 71.6739 58 73 58H183C184.326 58 185.598 58.5268 186.536 59.4645C187.473 60.4021 188 61.6739 188 63C188 64.3261 187.473 65.5979 186.536 66.5355C185.598 67.4732 184.326 68 183 68H173V78C173.002 86.4903 170.602 94.808 166.078 101.992C161.553 109.176 155.088 114.934 147.43 118.6C144.53 119.99 143 122.37 143 124.5V131.5C143 133.63 144.54 136.01 147.43 137.4C155.088 141.066 161.553 146.824 166.078 154.008C170.602 161.192 173.002 169.51 173 178V188H183C184.326 188 185.598 188.527 186.536 189.464C187.473 190.402 188 191.674 188 193C188 194.326 187.473 195.598 186.536 196.536C185.598 197.473 184.326 198 183 198H73ZM93 68V78C93 83.37 94.2 88.45 96.37 93H159.63C161.79 88.45 163 83.37 163 78V68H93ZM123 131.5C123 138.51 118.22 143.86 112.89 146.42C106.933 149.271 101.904 153.749 98.3845 159.338C94.8649 164.926 92.9982 171.396 93 178C93 178 101.66 165.01 123 163.2V131.5ZM133 131.5V163.2C154.34 165.01 163 178 163 178C163.002 171.396 161.135 164.926 157.615 159.338C154.096 153.749 149.067 149.271 143.11 146.42C137.78 143.86 133 138.52 133 131.51V131.5Z" fill="#FFFCCC"/>
</g>
<defs>
<clipPath id="clip0_32_2">
<rect width="256" height="250" fill="white"/>
</clipPath>
</defs>
</svg>
