<svg width="256" height="256" viewBox="0 0 256 256" fill="none" xmlns="http://www.w3.org/2000/svg">
<g clip-path="url(#clip0_49_13)">
<rect width="256" height="256" rx="40.4211" fill="#EFE65C"/>
<path d="M179.737 109.226H172.787V102.277C172.787 100.433 172.055 98.6656 170.752 97.3623C169.448 96.059 167.681 95.3268 165.837 95.3268H82.44C80.5968 95.3268 78.8291 96.059 77.5258 97.3623C76.2224 98.6656 75.4902 100.433 75.4902 102.277V164.825C75.4902 172.197 78.4191 179.268 83.6324 184.482C88.8458 189.695 95.9166 192.624 103.289 192.624H144.988C157.901 192.624 168.694 183.735 171.8 171.774H179.737C185.267 171.774 190.57 169.578 194.48 165.668C198.39 161.758 200.586 156.455 200.586 150.925V130.076C200.586 124.546 198.39 119.243 194.48 115.333C190.57 111.423 185.267 109.226 179.737 109.226ZM186.687 150.925C186.687 152.768 185.955 154.536 184.651 155.839C183.348 157.143 181.58 157.875 179.737 157.875H172.787V123.126H179.737C181.58 123.126 183.348 123.858 184.651 125.161C185.955 126.465 186.687 128.232 186.687 130.076V150.925Z" fill="#2F4858"/>
<path d="M151.071 118.227C151.837 118.993 152.267 120.032 152.267 121.114V153.779L151.687 161.945C149.862 168.972 143.521 174.194 135.935 174.194H111.437C107.105 174.194 102.951 172.473 99.8883 169.41C96.8254 166.347 95.1047 162.193 95.1047 157.862V121.114C95.1047 120.032 95.5349 118.993 96.3006 118.227C97.0663 117.462 98.1049 117.031 99.1878 117.031H148.184C149.267 117.031 150.305 117.462 151.071 118.227Z" fill="#FFFCCC"/>
<path d="M106.355 91.8674C104.057 81.4233 103.347 60.5353 118.888 60.5353C138.313 60.5353 143.327 61.4752 144.58 54.2688C145.833 47.0625 147.086 39.2294 154.606 38.9161C160.622 38.6655 166.303 38.8117 168.392 38.9161M122.021 73.3814C128.705 73.7992 143.327 74.0081 148.34 71.5015C154.606 68.3683 160.559 57.402 160.246 54.2688" stroke="#2F4858" stroke-width="5.01314" stroke-linecap="round"/>
</g>
<defs>
<clipPath id="clip0_49_13">
<rect width="256" height="256" fill="white"/>
</clipPath>
</defs>
</svg>
