<svg width="256" height="250" viewBox="0 0 256 250" fill="none" xmlns="http://www.w3.org/2000/svg">
<g clip-path="url(#clip0_32_11)">
<rect width="256" height="250" fill="white"/>
<rect width="256" height="256" fill="white"/>
<rect width="256" height="256" rx="40.4211" fill="#EFE65C"/>
<path d="M69.5 64.625C69.5 63.3321 70.0136 62.0921 70.9279 61.1779C71.8421 60.2636 73.0821 59.75 74.375 59.75H181.625C182.918 59.75 184.158 60.2636 185.072 61.1779C185.986 62.0921 186.5 63.3321 186.5 64.625C186.5 65.9179 185.986 67.1579 185.072 68.0721C184.158 68.9864 182.918 69.5 181.625 69.5H171.875V79.25C171.877 87.5281 169.537 95.6378 165.126 102.642C160.714 109.647 154.411 115.261 146.944 118.835C144.117 120.19 142.625 122.511 142.625 124.588V131.413C142.625 133.489 144.127 135.81 146.944 137.165C154.411 140.739 160.714 146.353 165.126 153.358C169.537 160.362 171.877 168.472 171.875 176.75V186.5H181.625C182.918 186.5 184.158 187.014 185.072 187.928C185.986 188.842 186.5 190.082 186.5 191.375C186.5 192.668 185.986 193.908 185.072 194.822C184.158 195.736 182.918 196.25 181.625 196.25H74.375C73.0821 196.25 71.8421 195.736 70.9279 194.822C70.0136 193.908 69.5 192.668 69.5 191.375C69.5 190.082 70.0136 188.842 70.9279 187.928C71.8421 187.014 73.0821 186.5 74.375 186.5H84.125V176.75C84.123 168.472 86.4629 160.362 90.8744 153.358C95.286 146.353 101.589 140.739 109.056 137.165C111.883 135.81 113.375 133.489 113.375 131.413V124.588C113.375 122.511 111.874 120.19 109.056 118.835C101.589 115.261 95.286 109.647 90.8744 102.642C86.4629 95.6378 84.123 87.5281 84.125 79.25V69.5H74.375C73.0821 69.5 71.8421 68.9864 70.9279 68.0721C70.0136 67.1579 69.5 65.9179 69.5 64.625ZM93.875 69.5V79.25C93.8732 85.6891 95.6933 91.9973 99.1249 97.4458C102.557 102.894 107.46 107.261 113.268 110.041C118.464 112.537 123.125 117.753 123.125 124.578V131.422C123.125 131.422 124.88 132.875 128 132.875C131.12 132.875 132.875 131.413 132.875 131.413V124.588C132.875 117.753 137.535 112.537 142.732 110.041C148.54 107.261 153.443 102.894 156.875 97.4458C160.307 91.9973 162.127 85.6891 162.125 79.25V69.5H93.875Z" fill="#FFFCCC"/>
</g>
<defs>
<clipPath id="clip0_32_11">
<rect width="256" height="250" fill="white"/>
</clipPath>
</defs>
</svg>
