<svg width="79" height="14" viewBox="0 0 79 14" fill="none" xmlns="http://www.w3.org/2000/svg">
<path d="M4.74 10.7C4.508 10.86 4.236 10.984 3.924 11.072C3.62 11.16 3.316 11.204 3.012 11.204C1.62 11.196 0.924 10.428 0.924 8.9V5.948H0.024V4.628H0.924V3.248L2.82 3.032V4.628H4.284L4.08 5.948H2.82V8.876C2.82 9.172 2.868 9.384 2.964 9.512C3.06 9.64 3.212 9.704 3.42 9.704C3.636 9.704 3.864 9.636 4.104 9.5L4.74 10.7ZM13.5569 4.628L12.2369 11H9.96891L9.11691 6.32L8.27691 11H6.03291L4.67691 4.628H6.59691L7.25691 9.584L8.25291 4.628H10.1009L10.9769 9.584L11.7449 4.628H13.5569ZM19.9172 7.688C19.9172 7.952 19.9052 8.18 19.8812 8.372H15.9332C15.9972 8.908 16.1492 9.284 16.3892 9.5C16.6292 9.716 16.9612 9.824 17.3852 9.824C17.6412 9.824 17.8892 9.78 18.1292 9.692C18.3692 9.596 18.6292 9.452 18.9092 9.26L19.6892 10.316C18.9452 10.908 18.1172 11.204 17.2052 11.204C16.1732 11.204 15.3812 10.9 14.8292 10.292C14.2772 9.684 14.0012 8.868 14.0012 7.844C14.0012 7.196 14.1172 6.616 14.3492 6.104C14.5812 5.584 14.9212 5.176 15.3692 4.88C15.8172 4.576 16.3532 4.424 16.9772 4.424C17.8972 4.424 18.6172 4.712 19.1372 5.288C19.6572 5.864 19.9172 6.664 19.9172 7.688ZM18.0572 7.148C18.0412 6.172 17.6972 5.684 17.0252 5.684C16.6972 5.684 16.4412 5.804 16.2572 6.044C16.0812 6.284 15.9732 6.68 15.9332 7.232H18.0572V7.148ZM24.7143 4.424C25.2663 4.424 25.6983 4.592 26.0103 4.928C26.3223 5.264 26.4783 5.736 26.4783 6.344V11H24.5823V6.668C24.5823 6.348 24.5303 6.128 24.4263 6.008C24.3303 5.88 24.1823 5.816 23.9823 5.816C23.5983 5.816 23.2303 6.092 22.8783 6.644V11H20.9823V4.628H22.6383L22.7703 5.384C23.0423 5.064 23.3343 4.824 23.6463 4.664C23.9663 4.504 24.3223 4.424 24.7143 4.424ZM31.9041 10.7C31.6721 10.86 31.4001 10.984 31.0881 11.072C30.7841 11.16 30.4801 11.204 30.1761 11.204C28.7841 11.196 28.0881 10.428 28.0881 8.9V5.948H27.1881V4.628H28.0881V3.248L29.9841 3.032V4.628H31.4481L31.2441 5.948H29.9841V8.876C29.9841 9.172 30.0321 9.384 30.1281 9.512C30.2241 9.64 30.3761 9.704 30.5841 9.704C30.8001 9.704 31.0281 9.636 31.2681 9.5L31.9041 10.7ZM35.9944 11.012C35.7384 11.836 35.3184 12.468 34.7344 12.908C34.1584 13.356 33.3824 13.608 32.4064 13.664L32.2024 12.332C32.8104 12.252 33.2584 12.116 33.5464 11.924C33.8424 11.732 34.0784 11.424 34.2544 11H33.6064L31.6624 4.628H33.6784L34.8184 9.788L36.0664 4.628H38.0224L35.9944 11.012Z" fill="#DFEBF3"/>
<path d="M45.533 10.7C45.301 10.86 45.029 10.984 44.717 11.072C44.413 11.16 44.109 11.204 43.805 11.204C42.413 11.196 41.717 10.428 41.717 8.9V5.948H40.817V4.628H41.717V3.248L43.613 3.032V4.628H45.077L44.873 5.948H43.613V8.876C43.613 9.172 43.661 9.384 43.757 9.512C43.853 9.64 44.005 9.704 44.213 9.704C44.429 9.704 44.657 9.636 44.897 9.5L45.533 10.7ZM54.3499 4.628L53.0299 11H50.7619L49.9099 6.32L49.0699 11H46.8259L45.4699 4.628H47.3899L48.0499 9.584L49.0459 4.628H50.8939L51.7699 9.584L52.5379 4.628H54.3499ZM60.7102 7.688C60.7102 7.952 60.6982 8.18 60.6742 8.372H56.7262C56.7902 8.908 56.9422 9.284 57.1822 9.5C57.4222 9.716 57.7542 9.824 58.1782 9.824C58.4342 9.824 58.6822 9.78 58.9222 9.692C59.1622 9.596 59.4222 9.452 59.7022 9.26L60.4822 10.316C59.7382 10.908 58.9102 11.204 57.9982 11.204C56.9662 11.204 56.1742 10.9 55.6222 10.292C55.0702 9.684 54.7942 8.868 54.7942 7.844C54.7942 7.196 54.9102 6.616 55.1422 6.104C55.3742 5.584 55.7142 5.176 56.1622 4.88C56.6102 4.576 57.1462 4.424 57.7702 4.424C58.6902 4.424 59.4102 4.712 59.9302 5.288C60.4502 5.864 60.7102 6.664 60.7102 7.688ZM58.8502 7.148C58.8342 6.172 58.4902 5.684 57.8182 5.684C57.4902 5.684 57.2342 5.804 57.0502 6.044C56.8742 6.284 56.7662 6.68 56.7262 7.232H58.8502V7.148ZM65.5073 4.424C66.0593 4.424 66.4913 4.592 66.8033 4.928C67.1153 5.264 67.2713 5.736 67.2713 6.344V11H65.3753V6.668C65.3753 6.348 65.3233 6.128 65.2193 6.008C65.1233 5.88 64.9753 5.816 64.7753 5.816C64.3913 5.816 64.0233 6.092 63.6713 6.644V11H61.7753V4.628H63.4313L63.5633 5.384C63.8353 5.064 64.1273 4.824 64.4393 4.664C64.7593 4.504 65.1153 4.424 65.5073 4.424ZM72.697 10.7C72.465 10.86 72.193 10.984 71.881 11.072C71.577 11.16 71.273 11.204 70.969 11.204C69.577 11.196 68.881 10.428 68.881 8.9V5.948H67.981V4.628H68.881V3.248L70.777 3.032V4.628H72.241L72.037 5.948H70.777V8.876C70.777 9.172 70.825 9.384 70.921 9.512C71.017 9.64 71.169 9.704 71.377 9.704C71.593 9.704 71.821 9.636 72.061 9.5L72.697 10.7ZM76.7873 11.012C76.5313 11.836 76.1113 12.468 75.5273 12.908C74.9513 13.356 74.1753 13.608 73.1993 13.664L72.9953 12.332C73.6033 12.252 74.0513 12.116 74.3393 11.924C74.6353 11.732 74.8713 11.424 75.0473 11H74.3993L72.4553 4.628H74.4713L75.6113 9.788L76.8593 4.628H78.8153L76.7873 11.012Z" fill="#EFE65C"/>
</svg>
